HIERARCHY
ROOT Hips
{
	OFFSET 0.000000 0.000000 0.000000 
	CHANNELS 6 Xposition Yposition Zposition Zrotation Yrotation Xrotation
	JOINT LeftUpLeg
	{
		OFFSET 1.363060 -1.794630 0.839290 
		CHANNELS 3 Zrotation Yrotation Xrotation
		JOINT LeftLeg
		{
			OFFSET 2.448110 -6.726130 0.000000 
			CHANNELS 3 Zrotation Yrotation Xrotation
			JOINT LeftFoot
			{
				OFFSET 2.562200 -7.039590 0.000000 
				CHANNELS 3 Zrotation Yrotation Xrotation
				JOINT LeftToeBase
				{
					OFFSET 0.157640 -0.433110 2.322550 
					CHANNELS 3 Zrotation Yrotation Xrotation
					End Site
					{
						OFFSET 0.000000 0.000000 0.000000 
					}
				}
			}
		}
	}
	JOINT RightUpLeg
	{
		OFFSET -1.305520 -1.794630 0.839290 
		CHANNELS 3 Zrotation Yrotation Xrotation
		JOINT RightLeg
		{
			OFFSET -2.542530 -6.985550 0.000000 
			CHANNELS 3 Zrotation Yrotation Xrotation
			JOINT RightFoot
			{
				OFFSET -2.568260 -7.056230 0.000000 
				CHANNELS 3 Zrotation Yrotation Xrotation
				JOINT RightToeBase
				{
					OFFSET -0.164730 -0.452590 2.363150 
					CHANNELS 3 Zrotation Yrotation Xrotation
					End Site
					{
						OFFSET 0.000000 0.000000 0.000000 
					}
				}
			}
		}
	}
	JOINT Spine
	{
		OFFSET 0.028270 2.035590 -0.193380 
		CHANNELS 3 Zrotation Yrotation Xrotation
		JOINT Spine1
		{
			OFFSET 0.056720 2.048850 -0.042750 
			CHANNELS 3 Zrotation Yrotation Xrotation
			JOINT Neck1
			{
				OFFSET -0.054170 1.746240 0.172020 
				CHANNELS 3 Zrotation Yrotation Xrotation
				JOINT Head
				{
					OFFSET 0.104070 1.761360 -0.123970 
					CHANNELS 3 Zrotation Yrotation Xrotation
					End Site
					{
						OFFSET 0.000000 0.000000 0.000000 
					}
				}
			}
			JOINT LeftArm
			{
				OFFSET 3.362410 1.200890 -0.311210 
				CHANNELS 3 Zrotation Yrotation Xrotation
				JOINT LeftForeArm
				{
					OFFSET 4.983000 -0.000000 -0.000000 
					CHANNELS 3 Zrotation Yrotation Xrotation
					JOINT LeftHand
					{
						OFFSET 3.483560 -0.000000 -0.000000 
						CHANNELS 3 Zrotation Yrotation Xrotation
						JOINT LeftHandIndex1
						{
							OFFSET 0.715260 -0.000000 -0.000000 
							CHANNELS 3 Zrotation Yrotation Xrotation
							End Site
							{
								OFFSET 0.000000 0.000000 0.000000 
							}
						}
					}
				}
			}
			JOINT RightArm
			{
				OFFSET -3.136600 1.374050 -0.404650 
				CHANNELS 3 Zrotation Yrotation Xrotation
				JOINT RightForeArm
				{
					OFFSET -5.241900 -0.000000 -0.000000 
					CHANNELS 3 Zrotation Yrotation Xrotation
					JOINT RightHand
					{
						OFFSET -3.444170 -0.000000 -0.000000 
						CHANNELS 3 Zrotation Yrotation Xrotation
						JOINT RightHandIndex1
						{
							OFFSET -0.622530 -0.000000 -0.000000 
							CHANNELS 3 Zrotation Yrotation Xrotation
							End Site
							{
								OFFSET 0.000000 0.000000 0.000000 
							}
						}
					}
				}
			}
		}
	}
}
MOTION
Frames: 7
Frame Time: 0.041667
39.788960 17.797880 6.224052 -138.540174 -80.646566 149.941879 -11.405750 -5.523356 -6.951510 -0.384741 3.613252 8.523421 -1.456129 9.616802 -0.895845 0.004300 0.423100 1.162600 26.084917 6.862324 -9.567119 -0.293472 -5.492253 13.964917 1.821570 -12.748961 -4.539867 -0.565700 -4.817400 13.388400 1.545963 -2.672271 -5.440182 4.890576 -1.572981 -0.110405 5.969519 -9.285191 12.429298 2.929500 -4.628900 9.613700 -90.633522 3.547980 18.972115 15.363623 -34.137947 -4.437897 0.354842 4.351579 17.226669 -7.125000 0.000000 0.000000 85.810892 1.796496 26.056988 -12.691039 25.801751 -3.042234 -0.663314 0.279503 9.629493 7.125000 0.000000 0.000000 
39.787566 17.798577 6.224251 -138.550669 -80.675468 149.946141 -11.433885 -5.554568 -6.920212 -0.385732 3.608511 8.508190 -1.458003 9.626370 -0.909846 0.004400 0.429300 1.179500 26.058582 6.813436 -9.555843 -0.291263 -5.482381 13.935755 1.823234 -12.760167 -4.498496 -0.569700 -4.833900 13.435500 1.542533 -2.702451 -5.407443 4.879579 -1.587629 0.021165 6.008308 -9.288534 12.358767 2.948400 -4.627100 9.576600 -90.659965 3.487031 18.936208 15.341552 -34.125245 -4.433969 0.362891 4.357137 17.242205 -7.125000 0.000000 0.000000 85.832611 1.933671 26.344007 -12.756020 25.901286 -3.068727 -0.664963 0.278826 9.533399 7.125000 0.000000 0.000000 
39.785874 17.798477 6.224251 -138.416340 -80.687067 149.811722 -11.427627 -5.565623 -6.914723 -0.385979 3.605507 8.501087 -1.461251 9.643960 -0.878126 0.003300 0.370100 1.017000 26.072265 6.819647 -9.543958 -0.290883 -5.480730 13.931917 1.826607 -12.776310 -4.525623 -0.555800 -4.775300 13.268900 1.557513 -2.691633 -5.438973 4.948502 -1.580982 -0.085967 5.973728 -9.295569 12.396277 2.936800 -4.636500 9.593400 -90.732555 3.587821 18.955784 15.329915 -34.124518 -4.434355 0.373251 4.371549 17.257148 -7.125000 0.000000 0.000000 85.776582 1.906499 26.541095 -12.836112 26.008212 -3.097865 -0.668186 0.266693 9.466639 7.125000 0.000000 0.000000 
39.784182 17.798676 6.224152 -138.504377 -80.681608 149.905441 -11.435805 -5.559685 -6.906539 -0.386605 3.601598 8.488952 -1.462293 9.650113 -0.880200 0.005100 0.459200 1.261800 26.066450 6.845301 -9.530516 -0.290076 -5.477321 13.921842 1.828500 -12.787616 -4.502123 -0.579000 -4.872600 13.545400 1.538097 -2.652877 -5.424436 4.905820 -1.562190 -0.030389 5.982598 -9.346224 12.404873 2.924000 -4.653200 9.614500 -90.707743 3.532028 18.994626 15.281287 -34.074513 -4.419182 0.398002 4.367777 17.316389 -7.125000 0.000000 0.000000 85.834906 1.995722 26.663515 -12.893582 26.097284 -3.125153 -0.666250 0.279210 9.406978 7.125000 0.000000 0.000000 
39.782987 17.798975 6.224649 -138.297703 -80.712045 149.712279 -11.428970 -5.577465 -6.914306 -0.387211 3.599650 8.483839 -1.457160 9.626023 -0.870936 0.004900 0.451800 1.241300 26.072397 6.839819 -9.536891 -0.289278 -5.476490 13.917309 1.836509 -12.828821 -4.555339 -0.567000 -4.822800 13.403700 1.545995 -2.691210 -5.401570 4.915452 -1.580993 0.071393 6.027340 -9.338522 12.363653 2.956100 -4.649200 9.601100 -90.782901 3.492537 18.893763 15.227120 -34.031150 -4.405261 0.413408 4.373930 17.359515 -7.125000 0.000000 0.000000 85.826766 2.121581 26.826835 -12.943495 26.171640 -3.148227 -0.666672 0.270405 9.447785 7.125000 0.000000 0.000000 
39.781395 17.799075 6.224450 -138.267324 -80.718059 149.678144 -11.426542 -5.546374 -6.912742 -0.387190 3.599249 8.483910 -1.448731 9.585794 -0.866412 0.006500 0.519500 1.427600 26.074618 6.838908 -9.514806 -0.288325 -5.471311 13.903038 1.837568 -12.835844 -4.517672 -0.579500 -4.874500 13.551100 1.517001 -2.618920 -5.407564 4.872533 -1.546804 0.033456 5.987828 -9.463719 12.428806 2.901000 -4.698300 9.673700 -90.783632 3.507598 19.143382 15.093715 -33.715326 -4.235873 1.309030 2.816772 17.551734 -7.125000 0.000000 0.000000 85.895134 2.167360 26.838802 -12.985319 26.231568 -3.167215 -0.666303 0.268722 9.425695 7.125000 0.000000 0.000000 
39.779702 17.798776 6.225446 -138.289874 -80.733068 149.699275 -11.449417 -5.561372 -6.902483 -0.387071 3.601661 8.490124 -1.447134 9.576774 -0.887523 0.004300 0.422100 1.159900 26.057375 6.849902 -9.507281 -0.288598 -5.472769 13.907667 1.840581 -12.850333 -4.539446 -0.578300 -4.869600 13.537100 1.506501 -2.592015 -5.402570 4.860086 -1.533860 0.043483 5.985340 -9.496852 12.459774 2.885900 -4.708200 9.708600 -90.791128 3.494625 19.177603 15.051224 -33.672116 -4.220674 1.310900 2.819443 17.560826 -7.125000 0.000000 0.000000 85.920737 2.218701 26.892527 -13.042799 26.320708 -3.207806 -0.656612 0.275874 9.366117 7.125000 0.000000 0.000000 
